# xmcd CD database file
#
# Track frame offsets:
#	150
#	23052
#	42724
#	64017
#	77933
#	97735
#	115180
#	137263
#	153986
#	173191
#	191944
#	211867
#
# Disc length: 2985 seconds
#
# Revision: 0
# Processed by: cddbd v1.5.2PL0 Copyright (c) Steve Scherf et al.
# Submitted via: CDex 1.70beta2
#
DISCID=9b0ba70c
DTITLE=Wielebny Blues Band - Deja Vu
DYEAR=2008
DGENRE=Blues
TTITLE0=Deja Vu
TTITLE1=Akt Skruchy
TTITLE2=Grajek
TTITLE3=Bezdomny Facet
TTITLE4=Od 6 godzin 15 minut
TTITLE5=Kiedy zawołasz mnie
TTITLE6=Słabość
TTITLE7=Szczęście
TTITLE8=Anioł
TTITLE9=Spotkanie
TTITLE10=Dziewiate - Szczęśliwymi Bdzcie
TTITLE11=Chyba Miłość
EXTD=YEAR: 2008
EXTT0=
EXTT1=
EXTT2=
EXTT3=
EXTT4=
EXTT5=
EXTT6=
EXTT7=
EXTT8=
EXTT9=
EXTT10=
EXTT11=
PLAYORDER=
